<svg id="Layer_1" data-name="Layer 1" xmlns="http://www.w3.org/2000/svg" viewBox="0 0 76.9 76.9"><defs><style>.cls-1{fill:#fff;}.cls-2{fill:#49b5e7;}</style></defs><title>facebook-logo</title><path class="cls-1" d="M74,146.37H43.75V69.47h76.9v76.9H88.12a2.44,2.44,0,0,0,1.06-2.3q0-15.06,0-30.12v-1h.93c3.45,0,6.9,0,10.35,0,1.41,0,2-.53,2-1.93,0-4,0-7.89,0-11.84,0-1.44-.56-2-2-2H89.18c0-2.91,0-5.71,0-8.5a5.74,5.74,0,0,1,.57-2.22,3.58,3.58,0,0,1,3.42-1.88c2.49-.1,5-.1,7.49-.13,1.71,0,2.22-.51,2.22-2.23V71.84a4.73,4.73,0,0,0-.05-.75,1.5,1.5,0,0,0-1.6-1.45c-4.22,0-8.44-.06-12.65.19a15.86,15.86,0,0,0-9.75,4.11c-3.93,3.5-5.61,8-5.83,13.17-.14,3.06,0,6.14-.07,9.21v.89h-9.5c-1.51,0-2.09.56-2.09,2.06q0,5.82,0,11.62c0,1.52.56,2.07,2.07,2.07,2.9,0,5.8,0,8.69,0,.27,0,.53,0,.83.05v1.06q0,15.06,0,30.12A2.17,2.17,0,0,0,74,146.37Z" transform="translate(-43.75 -69.47)"/><path class="cls-2" d="M74,146.37a2.17,2.17,0,0,1-1.09-2.18q0-15.06,0-30.12V113c-.3,0-.56-.05-.83-.05-2.89,0-5.79,0-8.69,0-1.51,0-2.07-.55-2.07-2.07q0-5.81,0-11.62c0-1.5.58-2.06,2.09-2.06H73v-.89c0-3.07-.07-6.15.07-9.21.22-5.13,1.9-9.67,5.83-13.17a15.86,15.86,0,0,1,9.75-4.11c4.21-.25,8.43-.16,12.65-.19a1.5,1.5,0,0,1,1.6,1.45,4.73,4.73,0,0,1,.05.75V82.25c0,1.72-.51,2.22-2.22,2.23-2.5,0-5,0-7.49.13a3.58,3.58,0,0,0-3.42,1.88,5.74,5.74,0,0,0-.57,2.22c-.06,2.79,0,5.59,0,8.5H100.4c1.45,0,2,.54,2,2,0,4,0,7.89,0,11.84,0,1.4-.55,1.93-2,1.93-3.45,0-6.9,0-10.35,0h-.93v1q0,15.06,0,30.12a2.44,2.44,0,0,1-1.06,2.3Z" transform="translate(-43.75 -69.47)"/></svg>