<svg id="Layer_1" data-name="Layer 1" xmlns="http://www.w3.org/2000/svg" viewBox="0 0 125.48 119.89"><defs><style>.cls-1{fill:#fff;}.cls-2{fill:#49b5e7;}</style></defs><title>linkedin-logo</title><path class="cls-1" d="M70,170.31H55.18c0-.26,0-.52,0-.78V89.85c0-.13,0-.27,0-.4H28.32v.71q0,39.74,0,79.47c0,.23,0,.45,0,.68H26.67V65.68c.08.37.16.74.23,1.11a13.21,13.21,0,0,0,9,10.7,18.26,18.26,0,0,0,11,.3A13.3,13.3,0,0,0,57,65a14.45,14.45,0,0,0-1.68-7.39,13.68,13.68,0,0,0-10.45-7l-1.39-.21H152.12V169.84c0,.15.12.35-.1.47,0-.21,0-.41,0-.62V124.28a60.76,60.76,0,0,0-.76-10.61,39.47,39.47,0,0,0-2.75-9.34,27.6,27.6,0,0,0-13.16-13.81,29.73,29.73,0,0,0-11.81-3,33.41,33.41,0,0,0-8.47.5A26.09,26.09,0,0,0,105,92.35a30.18,30.18,0,0,0-7.59,7.9l-.32.45-.09,0V89.45H70.08a1.15,1.15,0,0,0,0,.24c0,2.61.13,5.22.17,7.84,0,3.46.07,6.93.06,10.39q-.09,28.46-.2,56.91C70.08,166.66,70,168.48,70,170.31Z" transform="translate(-26.67 -50.42)"/><path class="cls-2" d="M70,170.31c0-1.83.06-3.65.07-5.48q.1-28.46.2-56.91c0-3.46,0-6.93-.06-10.39,0-2.62-.12-5.23-.17-7.84a1.15,1.15,0,0,1,0-.24H97v11.22l.09,0,.32-.45a30.18,30.18,0,0,1,7.59-7.9,26.09,26.09,0,0,1,10.16-4.3,33.41,33.41,0,0,1,8.47-.5,29.73,29.73,0,0,1,11.81,3,27.6,27.6,0,0,1,13.16,13.81,39.47,39.47,0,0,1,2.75,9.34,60.76,60.76,0,0,1,.76,10.61v45.41c0,.21,0,.41,0,.62H125.28c0-.24-.06-.48-.06-.72v-42a38.12,38.12,0,0,0-.57-7.23,18.09,18.09,0,0,0-2.17-6,10.83,10.83,0,0,0-6.56-5,16.26,16.26,0,0,0-5.64-.47,12.48,12.48,0,0,0-7.32,2.84,17.71,17.71,0,0,0-4.44,5.55,13.14,13.14,0,0,0-1.38,4.36,31.9,31.9,0,0,0-.19,3.91v44.26c0,.17,0,.35,0,.52Z" transform="translate(-26.67 -50.42)"/><path class="cls-2" d="M28.34,170.31c0-.23,0-.45,0-.68q0-39.74,0-79.47v-.71H55.15c0,.13,0,.27,0,.4v79.68c0,.26,0,.52,0,.78Z" transform="translate(-26.67 -50.42)"/><path class="cls-1" d="M97,170.31c0-.17,0-.35,0-.52V125.53a31.9,31.9,0,0,1,.19-3.91,13.14,13.14,0,0,1,1.38-4.36,17.71,17.71,0,0,1,4.44-5.55,12.48,12.48,0,0,1,7.32-2.84,16.26,16.26,0,0,1,5.64.47,10.83,10.83,0,0,1,6.56,5,18.09,18.09,0,0,1,2.17,6,38.12,38.12,0,0,1,.57,7.23v42c0,.24,0,.48.06.72Z" transform="translate(-26.67 -50.42)"/><path class="cls-2" d="M43.48,50.42l1.39.21a13.68,13.68,0,0,1,10.45,7A14.45,14.45,0,0,1,57,65,13.3,13.3,0,0,1,46.81,77.79a18.26,18.26,0,0,1-11-.3,13.21,13.21,0,0,1-9-10.7c-.07-.37-.15-.74-.23-1.11V63.07a6.33,6.33,0,0,0,.19-.75,12.46,12.46,0,0,1,2.22-5.78,14.28,14.28,0,0,1,10-5.91l1.44-.21Z" transform="translate(-26.67 -50.42)"/><path class="cls-1" d="M40.56,50.42l-1.44.21a14.28,14.28,0,0,0-10,5.91,12.46,12.46,0,0,0-2.22,5.78,6.33,6.33,0,0,1-.19.75V50.42Z" transform="translate(-26.67 -50.42)"/></svg>