<svg id="Layer_1" data-name="Layer 1" xmlns="http://www.w3.org/2000/svg" viewBox="0 0 680 232.95"><defs><style>.cls-1{fill:#e35531;stroke:#e35531;}.cls-1,.cls-10,.cls-2,.cls-3,.cls-4,.cls-5,.cls-6,.cls-8,.cls-9{stroke-miterlimit:10;}.cls-2{fill:#a4b8cd;stroke:#a4b8cd;}.cls-3,.cls-7{fill:#b72925;}.cls-10,.cls-3,.cls-8,.cls-9{stroke:#b72925;}.cls-4{fill:#46b5e7;stroke:#46b5e7;}.cls-11,.cls-12,.cls-13,.cls-5{fill:#231f20;}.cls-5{stroke:#231f20;}.cls-6{fill:#0eb791;stroke:#0eb791;}.cls-7{font-size:92.85px;font-family:ArialRoundedMTBold, Arial Rounded MT Bold;}.cls-9{letter-spacing:-0.04em;}.cls-10{letter-spacing:0em;}.cls-11,.cls-12,.cls-13{font-size:83.79px;}.cls-11{letter-spacing:0em;}.cls-12{letter-spacing:-0.02em;}</style></defs><title>logo</title><path class="cls-1" d="M167.67,131.76l-88.36,63a11.18,11.18,0,0,0-1,.78v11.91a11.18,11.18,0,0,0,1,.78h0c5.22,3.73,13.68,3.73,18.9,0l92.65-66c4-2.82,4.91-7,2.88-10.42Z" transform="translate(-77.83 -131.26)"/><path class="cls-2" d="M190.86,353.74l-92.65-66C93,284,84.53,284,79.31,287.7h0a11.18,11.18,0,0,0-1,.78v11.91a11.26,11.26,0,0,0,1,.79L167,363.71H194C195.67,360.34,194.65,356.44,190.86,353.74Z" transform="translate(-77.83 -131.26)"/><path class="cls-3" d="M283.72,287.14c-5.22-3.72-13.68-3.72-18.91,0l-92.64,66c-4,2.85-4.93,7.05-2.81,10.53h25.85l88.51-63.09C288.94,296.89,288.94,290.86,283.72,287.14Z" transform="translate(-77.83 -131.26)"/><path class="cls-4" d="M88.75,191.37a15.82,15.82,0,0,0-10.42,3.56V300.26a15.82,15.82,0,0,0,10.42,3.56c7.38,0,13.37-4.26,13.37-9.53V200.9C102.12,195.63,96.13,191.37,88.75,191.37Z" transform="translate(-77.83 -131.26)"/><path class="cls-5" d="M283.72,194.75l-88.36-63H169.29c-2,3.46-1.08,7.6,2.88,10.42l92.64,66c5.23,3.73,13.69,3.73,18.91,0S288.94,198.47,283.72,194.75Z" transform="translate(-77.83 -131.26)"/><rect class="cls-6" x="261.9" y="191.37" width="26.74" height="112.46" rx="13.37" transform="translate(472.71 363.93) rotate(-180)"/><text class="cls-7" transform="translate(236.17 148.31)"><tspan class="cls-8">P</tspan><tspan class="cls-9" x="61.93" y="0">r</tspan><tspan class="cls-10" x="99.06" y="0">o</tspan><tspan class="cls-11" x="155.14" y="0">Ene</tspan><tspan class="cls-12" x="311.43" y="0">r</tspan><tspan class="cls-13" x="346.04" y="0">gy</tspan></text></svg>