<svg id="Layer_1" data-name="Layer 1" xmlns="http://www.w3.org/2000/svg" viewBox="0 0 142.58 142.58"><defs><style>.cls-1{fill:#fff;}.cls-2{fill:#49b5e7;}</style></defs><title>twitter-logo</title><path class="cls-1" d="M15.46,195.24V52.66H158V195.24Zm43-38.64C45.9,166.22,31.7,170,16,168.73c1.74,1.13,3.46,2.14,5.2,3.1a68.47,68.47,0,0,0,10.85,4.86c2.8.95,5.64,1.78,8.5,2.53a62.67,62.67,0,0,0,7.53,1.61c3.34.44,6.72.71,10.09.85a73.4,73.4,0,0,0,16.28-1.08c3.38-.61,6.74-1.4,10.08-2.22a64.57,64.57,0,0,0,12.09-4.48,77.24,77.24,0,0,0,14.17-8.66,81,81,0,0,0,14.3-14.18,82.46,82.46,0,0,0,10-16.25c1.41-3,2.59-6.12,3.76-9.23a54.21,54.21,0,0,0,1.85-6c.58-2.3,1.05-4.63,1.46-7a71,71,0,0,0,1.05-7.39c.22-3.25.15-6.52.26-9.79a1.64,1.64,0,0,1,.51-1c1.16-1,2.4-1.87,3.54-2.87A58.17,58.17,0,0,0,155.66,83c.74-1,1.42-2,2.14-3l-.14-.22A54.49,54.49,0,0,1,142,84,29.46,29.46,0,0,0,153.93,68.4a4.07,4.07,0,0,0-1.05.38c-1.22.65-2.4,1.37-3.66,1.93A64.2,64.2,0,0,1,136.67,75a1.72,1.72,0,0,1-2-.56,4.37,4.37,0,0,0-.49-.47,28.39,28.39,0,0,0-13-7.07A29.35,29.35,0,0,0,98,71a28.54,28.54,0,0,0-9.13,9.79A29.31,29.31,0,0,0,85.4,100c.11.62.21,1.23.32,1.92C61.29,100.21,41.33,90,25.54,71.39a29.45,29.45,0,0,0,8.57,38.75,19.74,19.74,0,0,1-6.5-1c-2.06-.68-4.08-1.5-6.23-2.3a28.44,28.44,0,0,0,6.38,18.44,30.07,30.07,0,0,0,16.53,10.47,45,45,0,0,1-6.19.81c-2.11.08-4.22-.14-6.42-.24A26,26,0,0,0,37,146,29.42,29.42,0,0,0,58.47,156.6Z" transform="translate(-15.46 -52.66)"/><path class="cls-2" d="M58.47,156.6A29.42,29.42,0,0,1,37,146a26,26,0,0,1-5.31-9.67c2.2.1,4.31.32,6.42.24a45,45,0,0,0,6.19-.81,30.07,30.07,0,0,1-16.53-10.47,28.44,28.44,0,0,1-6.38-18.44c2.15.8,4.17,1.62,6.23,2.3a19.74,19.74,0,0,0,6.5,1,29.45,29.45,0,0,1-8.57-38.75C41.33,90,61.29,100.21,85.72,101.89c-.11-.69-.21-1.3-.32-1.92A29.14,29.14,0,0,1,98,71a29.35,29.35,0,0,1,23.25-4.09,28.39,28.39,0,0,1,13,7.07,4.37,4.37,0,0,1,.49.47,1.72,1.72,0,0,0,2,.56,64.2,64.2,0,0,0,12.55-4.25c1.26-.56,2.44-1.28,3.66-1.93a4.07,4.07,0,0,1,1.05-.38A29.46,29.46,0,0,1,142,84a54.49,54.49,0,0,0,15.67-4.18l.14.22c-.72,1-1.4,2-2.14,3a58.17,58.17,0,0,1-8.08,8.52c-1.14,1-2.38,1.88-3.54,2.87a1.64,1.64,0,0,0-.51,1c-.11,3.27,0,6.54-.26,9.79a71,71,0,0,1-1.05,7.39c-.41,2.34-.88,4.67-1.46,7a54.21,54.21,0,0,1-1.85,6c-1.17,3.11-2.35,6.22-3.76,9.23a82.46,82.46,0,0,1-10,16.25,81,81,0,0,1-14.3,14.18,77.24,77.24,0,0,1-14.17,8.66,64.57,64.57,0,0,1-12.09,4.48c-3.34.82-6.7,1.61-10.08,2.22a73.4,73.4,0,0,1-16.28,1.08c-3.37-.14-6.75-.41-10.09-.85a62.67,62.67,0,0,1-7.53-1.61c-2.86-.75-5.7-1.58-8.5-2.53a68.47,68.47,0,0,1-10.85-4.86c-1.74-1-3.46-2-5.2-3.1C31.7,170,45.9,166.22,58.47,156.6Z" transform="translate(-15.46 -52.66)"/></svg>